<?xml version="1.0" standalone="no"?>
<!DOCTYPE svg PUBLIC "-//W3C//DTD SVG 20010904//EN"
 "http://www.w3.org/TR/2001/REC-SVG-20010904/DTD/svg10.dtd">
<svg version="1.0" xmlns="http://www.w3.org/2000/svg"
 width="512.000000pt" height="512.000000pt" viewBox="0 0 512.000000 512.000000"
 preserveAspectRatio="xMidYMid meet">
<metadata>
Created by potrace 1.11, written by Peter Selinger 2001-2013
</metadata>
<g transform="translate(0.000000,512.000000) scale(0.100000,-0.100000)"
fill="#000000" stroke="none">
<path d="M2505 4432 c-59 -55 -114 -105 -245 -222 -52 -47 -97 -87 -100 -90
-3 -3 -45 -41 -95 -85 -99 -88 -145 -130 -250 -226 -39 -35 -106 -95 -150
-134 -43 -38 -88 -79 -99 -90 -12 -11 -60 -54 -106 -95 -47 -41 -92 -82 -100
-90 -8 -8 -55 -51 -105 -95 -49 -44 -92 -82 -95 -85 -3 -3 -43 -39 -90 -80
-47 -41 -89 -80 -95 -86 -5 -5 -55 -50 -110 -100 -55 -49 -102 -91 -105 -94
-3 -3 -28 -25 -55 -50 -28 -25 -91 -82 -140 -127 -50 -44 -101 -90 -115 -102
l-25 -20 321 -1 320 0 0 -837 c-1 -461 0 -845 2 -854 3 -14 61 -15 533 -15
l529 -1 1 31 c0 17 1 306 1 641 l1 610 421 -2 c232 0 424 -2 427 -2 3 -1 6
-288 5 -638 l0 -638 532 -1 532 0 1 30 c0 17 1 400 2 851 l0 820 318 5 317 5
-192 172 c-105 95 -207 186 -226 204 -19 17 -71 64 -115 104 -44 39 -132 118
-195 175 -63 57 -153 138 -200 180 -47 42 -137 123 -200 180 -63 57 -153 138
-200 180 -47 43 -157 142 -245 220 -88 79 -162 146 -165 149 -3 3 -45 42 -95
86 -49 44 -92 82 -95 85 -3 3 -43 39 -90 80 -47 41 -89 81 -93 88 -12 18 -18
16 -72 -36z"/>
</g>
</svg>
